# xmcd CD database file
#
# Track frame offsets:
#	150
#	20925
#	37785
#
# Disc length: 725 seconds
#
# Revision: 1
# Processed by: cddbd v1.5.1PL0 Copyright (c) Steve Scherf et al.
# Submitted via: CDex 1.51
#
DISCID=1c02d303
DTITLE=オーノキヨフミ - 新宿西口摩天楼
DYEAR=2005
DGENRE=JPop
TTITLE0=オーノキヨフミ/新宿西口摩天楼
TTITLE1=オーノキヨフミ/空にお月様
TTITLE2=キヨフミ&ヴィンセント/練馬のうた 第二章
EXTD=YEAR: 2005
EXTT0=
EXTT1=
EXTT2=
PLAYORDER=
